<svg width="500" height="500" viewBox="0 0 500 500" fill="none" xmlns="http://www.w3.org/2000/svg">
<rect width="500" height="500" fill="#25D366"/>
<mask id="path-1-outside-1" maskUnits="userSpaceOnUse" x="57" y="167" width="387" height="166" fill="black">
<rect fill="white" x="57" y="167" width="387" height="166"/>
<path fill-rule="evenodd" clip-rule="evenodd" d="M173.363 180H88.0755C78.035 180 69.8352 188.507 70.0025 199.319V310.621C70.0025 313.812 71.676 316.647 74.3534 318.242C75.5248 318.951 76.8636 319.306 78.2023 319.306C79.7084 319.306 81.3818 318.951 82.7206 317.888L118.03 292.544H171.545C172.141 292.618 172.747 292.656 173.363 292.656H416.464C424.492 292.656 431 286.148 431 278.12V194.536C431 186.508 424.492 180 416.464 180H190.155H173.363Z"/>
</mask>
<path fill-rule="evenodd" clip-rule="evenodd" d="M173.363 180H88.0755C78.035 180 69.8352 188.507 70.0025 199.319V310.621C70.0025 313.812 71.676 316.647 74.3534 318.242C75.5248 318.951 76.8636 319.306 78.2023 319.306C79.7084 319.306 81.3818 318.951 82.7206 317.888L118.03 292.544H171.545C172.141 292.618 172.747 292.656 173.363 292.656H416.464C424.492 292.656 431 286.148 431 278.12V194.536C431 186.508 424.492 180 416.464 180H190.155H173.363Z" fill="#25D366"/>
<path fill-rule="evenodd" clip-rule="evenodd" d="M173.363 180H88.0755C78.035 180 69.8352 188.507 70.0025 199.319V310.621C70.0025 313.812 71.676 316.647 74.3534 318.242C75.5248 318.951 76.8636 319.306 78.2023 319.306C79.7084 319.306 81.3818 318.951 82.7206 317.888L118.03 292.544H171.545C172.141 292.618 172.747 292.656 173.363 292.656H416.464C424.492 292.656 431 286.148 431 278.12V194.536C431 186.508 424.492 180 416.464 180H190.155H173.363Z" fill="url(#paint0_linear)" fill-opacity="0.6"/>
<path d="M70.0025 199.319H83.0025V199.218L83.001 199.117L70.0025 199.319ZM74.3534 318.242L81.0844 307.121L81.0458 307.097L81.0069 307.074L74.3534 318.242ZM82.7206 317.888L75.14 307.327L74.8828 307.512L74.6348 307.709L82.7206 317.888ZM118.03 292.544V279.544H113.847L110.449 281.983L118.03 292.544ZM171.545 292.544L173.154 279.644L172.353 279.544H171.545V292.544ZM88.0755 193H173.363V167H88.0755V193ZM83.001 199.117C82.9379 195.041 85.8058 193 88.0755 193V167C70.2642 167 56.7325 181.974 57.0041 199.52L83.001 199.117ZM83.0025 310.621V199.319H57.0025V310.621H83.0025ZM81.0069 307.074C82.163 307.763 83.0025 309.113 83.0025 310.621H57.0025C57.0025 318.51 61.1889 325.532 67.6999 329.411L81.0069 307.074ZM78.2023 306.306C79.1401 306.306 80.1446 306.552 81.0844 307.121L67.6225 329.364C70.9051 331.351 74.5871 332.306 78.2023 332.306V306.306ZM74.6348 307.709C76.3455 306.35 77.8999 306.306 78.2023 306.306V332.306C81.5169 332.306 86.4182 331.553 90.8064 328.067L74.6348 307.709ZM110.449 281.983L75.14 307.327L90.3011 328.449L125.61 303.105L110.449 281.983ZM171.545 279.544H118.03V305.544H171.545V279.544ZM173.363 279.656C173.287 279.656 173.217 279.651 173.154 279.644L169.936 305.444C171.064 305.584 172.208 305.656 173.363 305.656V279.656ZM416.464 279.656H173.363V305.656H416.464V279.656ZM418 278.12C418 278.968 417.312 279.656 416.464 279.656V305.656C431.672 305.656 444 293.328 444 278.12H418ZM418 194.536V278.12H444V194.536H418ZM416.464 193C417.312 193 418 193.688 418 194.536H444C444 179.328 431.672 167 416.464 167V193ZM190.155 193H416.464V167H190.155V193ZM173.363 193H190.155V167H173.363V193Z" fill="white" mask="url(#path-1-outside-1)"/>
<path d="M223.644 253.934C224.338 255.599 224.685 256.802 224.685 257.543C224.685 259.301 223.251 260.781 220.383 261.984C218.902 262.632 217.7 262.955 216.774 262.955C215.895 262.955 215.155 262.747 214.554 262.331C213.998 261.868 213.582 261.406 213.304 260.943C212.842 260.064 211.038 255.877 207.892 248.382L205.74 248.521H196.996V256.363C196.996 257.427 196.95 258.237 196.858 258.792C196.811 259.301 196.603 259.902 196.233 260.596C195.585 261.845 193.781 262.47 190.82 262.47C187.582 262.47 185.685 261.614 185.13 259.902C184.852 259.116 184.713 257.913 184.713 256.293V217.779C184.713 216.715 184.736 215.928 184.783 215.419C184.875 214.864 185.107 214.24 185.477 213.546C186.124 212.296 187.929 211.672 190.89 211.672H205.879C209.95 211.672 213.906 213.152 217.746 216.113C219.596 217.547 221.123 219.49 222.326 221.942C223.529 224.394 224.13 227.124 224.13 230.131C224.13 235.359 222.395 239.662 218.926 243.039C219.943 245.491 221.516 249.123 223.644 253.934ZM196.996 236.238H205.879C207.221 236.238 208.562 235.729 209.904 234.711C211.246 233.693 211.917 232.167 211.917 230.131C211.917 228.096 211.246 226.569 209.904 225.551C208.562 224.487 207.174 223.955 205.74 223.955H196.996V236.238ZM240.775 250.256H262.149C263.213 250.256 264 250.302 264.509 250.395C265.064 250.441 265.689 250.649 266.383 251.019C267.632 251.667 268.256 253.471 268.256 256.432C268.256 259.671 267.4 261.568 265.689 262.123C264.902 262.4 263.699 262.539 262.08 262.539H234.599C231.361 262.539 229.464 261.66 228.909 259.902C228.631 259.162 228.492 257.982 228.492 256.363V217.779C228.492 215.419 228.932 213.823 229.811 212.99C230.69 212.111 232.355 211.672 234.807 211.672H262.149C263.213 211.672 264 211.718 264.509 211.811C265.064 211.857 265.689 212.065 266.383 212.435C267.632 213.083 268.256 214.887 268.256 217.848C268.256 221.087 267.4 222.983 265.689 223.539C264.902 223.816 263.699 223.955 262.08 223.955H240.775V230.964H254.516C255.58 230.964 256.366 231.01 256.875 231.103C257.43 231.149 258.055 231.357 258.749 231.727C259.998 232.375 260.623 234.179 260.623 237.14C260.623 240.379 259.744 242.275 257.986 242.831C257.199 243.108 255.996 243.247 254.377 243.247H240.775V250.256ZM294.536 237.001C301.615 243.802 306.634 248.914 309.595 252.338C311.122 254.05 311.885 255.507 311.885 256.71C311.885 257.866 310.96 259.254 309.109 260.874C307.259 262.447 305.732 263.233 304.529 263.233C303.373 263.233 301.962 262.261 300.296 260.318L285.029 242.9V256.432C285.029 257.543 284.983 258.352 284.89 258.861C284.844 259.37 284.636 259.971 284.266 260.665C283.618 261.914 281.814 262.539 278.853 262.539C275.614 262.539 273.717 261.66 273.162 259.902C272.885 259.162 272.746 257.982 272.746 256.363V217.779C272.746 216.715 272.769 215.928 272.815 215.419C272.908 214.864 273.139 214.24 273.509 213.546C274.157 212.296 275.961 211.672 278.922 211.672C282.161 211.672 284.081 212.528 284.682 214.24C284.913 215.026 285.029 216.229 285.029 217.848V231.103C291.321 224.024 296.41 218.218 300.296 213.684C301.915 211.788 303.326 210.839 304.529 210.839C305.732 210.839 307.259 211.649 309.109 213.268C310.96 214.841 311.885 216.229 311.885 217.432C311.885 218.588 311.191 219.976 309.803 221.595C307.12 224.695 302.956 228.951 297.312 234.364L294.536 237.001ZM336.06 211.047C342.907 211.047 348.852 213.522 353.895 218.473C358.937 223.423 361.459 229.576 361.459 236.932C361.459 244.242 359.053 250.487 354.242 255.669C349.43 260.804 343.508 263.372 336.476 263.372C329.444 263.372 323.453 260.827 318.503 255.738C313.599 250.649 311.147 244.589 311.147 237.557C311.147 233.717 311.841 230.131 313.229 226.8C314.617 223.423 316.467 220.601 318.78 218.334C321.093 216.067 323.754 214.286 326.761 212.99C329.768 211.695 332.868 211.047 336.06 211.047ZM323.43 237.21C323.43 241.327 324.748 244.681 327.385 247.272C330.069 249.816 333.053 251.089 336.337 251.089C339.622 251.089 342.583 249.84 345.22 247.341C347.857 244.843 349.176 241.489 349.176 237.279C349.176 233.069 347.834 229.692 345.151 227.147C342.514 224.603 339.553 223.33 336.268 223.33C332.983 223.33 330.022 224.626 327.385 227.217C324.748 229.761 323.43 233.092 323.43 237.21ZM378.28 252.268H397.155C398.682 252.268 399.792 252.454 400.486 252.824C401.18 253.147 401.643 253.68 401.874 254.42C402.106 255.16 402.221 256.155 402.221 257.404C402.221 258.607 402.106 259.578 401.874 260.318C401.643 261.059 401.25 261.568 400.695 261.845C399.816 262.308 398.613 262.539 397.086 262.539H372.103C368.865 262.539 366.968 261.66 366.413 259.902C366.135 259.162 365.997 257.982 365.997 256.363V217.779C365.997 216.715 366.02 215.928 366.066 215.419C366.159 214.864 366.39 214.24 366.76 213.546C367.408 212.296 369.212 211.672 372.173 211.672C375.411 211.672 377.331 212.528 377.933 214.24C378.164 215.026 378.28 216.229 378.28 217.848V252.268Z" fill="white"/>
<path d="M356.251 222.722L356.242 222.712L356.232 222.703C355.066 221.499 353.157 221.467 351.992 222.708L336.853 238.195L332.555 233.732L332.553 233.73C331.315 232.452 329.244 232.345 327.896 233.592L327.895 233.594C326.545 234.848 326.401 237.014 327.627 238.425C327.628 238.426 327.629 238.427 327.63 238.428L334.139 245.995L334.162 246.023L334.187 246.048L334.363 246.23L334.383 246.251L334.404 246.271C335.886 247.661 338.168 247.504 339.487 246.006L339.488 246.005L356.297 226.864C356.298 226.863 356.299 226.862 356.3 226.861C357.365 225.659 357.311 223.866 356.251 222.722Z" stroke="#48E97E" stroke-width="2.42271"/>
<path d="M355.362 223.545C354.658 222.818 353.543 222.818 352.868 223.545L336.847 239.934L331.683 234.572C330.89 233.754 329.57 233.694 328.719 234.481C327.839 235.299 327.751 236.723 328.543 237.632L335.057 245.206C335.116 245.266 335.174 245.327 335.233 245.387C336.201 246.296 337.698 246.205 338.578 245.206L355.391 226.06C356.037 225.333 356.008 224.242 355.362 223.545Z" fill="white" stroke="white" stroke-width="0.605678"/>
<mask id="path-6-outside-2" maskUnits="userSpaceOnUse" x="92.7574" y="205.777" width="73.5391" height="73.5391" fill="black">
<rect fill="white" x="92.7574" y="205.777" width="73.5391" height="73.5391"/>
<path fill-rule="evenodd" clip-rule="evenodd" d="M110.8 248.241C106.937 248.241 106.823 255.23 110.799 255.117L124.522 255.117C123.798 257.215 124.273 259.636 125.949 261.311C128.288 263.651 132.081 263.651 134.421 261.311C136.096 259.636 136.571 257.215 135.847 255.117L149.2 255.116C153.176 255.23 153.063 248.241 149.2 248.241C145.792 248.241 145.565 236.88 145.678 232.904C145.678 223.815 140.566 218.475 134.431 216.885C134.999 214.045 132.84 211.432 130 211.318C127.16 211.432 125.001 214.045 125.569 216.885C119.434 218.475 114.322 223.815 114.322 232.904C114.436 236.88 114.208 248.241 110.8 248.241Z"/>
</mask>
<path fill-rule="evenodd" clip-rule="evenodd" d="M110.8 248.241C106.937 248.241 106.823 255.23 110.799 255.117L124.522 255.117C123.798 257.215 124.273 259.636 125.949 261.311C128.288 263.651 132.081 263.651 134.421 261.311C136.096 259.636 136.571 257.215 135.847 255.117L149.2 255.116C153.176 255.23 153.063 248.241 149.2 248.241C145.792 248.241 145.565 236.88 145.678 232.904C145.678 223.815 140.566 218.475 134.431 216.885C134.999 214.045 132.84 211.432 130 211.318C127.16 211.432 125.001 214.045 125.569 216.885C119.434 218.475 114.322 223.815 114.322 232.904C114.436 236.88 114.208 248.241 110.8 248.241Z" fill="white"/>
<path d="M110.799 255.117L110.799 252.92L110.768 252.92L110.737 252.921L110.799 255.117ZM110.8 248.241V246.044L110.8 246.044L110.8 248.241ZM124.522 255.117L126.599 255.833L127.604 252.92L124.522 252.92L124.522 255.117ZM135.847 255.117L135.847 252.92L132.765 252.92L133.771 255.833L135.847 255.117ZM149.2 255.116L149.263 252.92L149.231 252.919L149.2 252.919L149.2 255.116ZM149.2 248.241V246.044L149.2 246.044L149.2 248.241ZM145.678 232.904L147.874 232.967L147.875 232.935V232.904L145.678 232.904ZM134.431 216.885L132.276 216.454L131.869 218.49L133.879 219.012L134.431 216.885ZM130 211.318L130.088 209.123L130 209.119L129.912 209.123L130 211.318ZM125.569 216.885L126.121 219.012L128.131 218.49L127.724 216.454L125.569 216.885ZM114.322 232.904L112.125 232.904L112.125 232.935L112.126 232.967L114.322 232.904ZM110.737 252.921C110.477 252.928 110.401 252.857 110.325 252.757C110.194 252.586 110.053 252.229 110.057 251.74C110.061 251.253 110.208 250.864 110.367 250.652C110.481 250.5 110.586 250.438 110.8 250.438L110.8 246.044C109.083 246.044 107.724 246.856 106.856 248.01C106.031 249.106 105.674 250.457 105.663 251.703C105.653 252.947 105.987 254.317 106.833 255.424C107.733 256.603 109.134 257.362 110.862 257.313L110.737 252.921ZM124.522 252.92L110.799 252.92L110.8 257.314L124.522 257.314L124.522 252.92ZM127.502 259.758C126.444 258.699 126.138 257.168 126.599 255.833L122.445 254.4C121.457 257.263 122.103 260.573 124.395 262.865L127.502 259.758ZM132.867 259.758C131.386 261.239 128.984 261.239 127.502 259.758L124.395 262.865C127.593 266.062 132.777 266.062 135.974 262.865L132.867 259.758ZM133.771 255.833C134.231 257.168 133.926 258.699 132.867 259.758L135.974 262.865C138.266 260.573 138.912 257.263 137.924 254.4L133.771 255.833ZM149.2 252.919L135.847 252.92L135.847 257.313L149.2 257.313L149.2 252.919ZM149.2 250.438C149.414 250.438 149.519 250.5 149.633 250.652C149.792 250.863 149.939 251.253 149.943 251.739C149.947 252.229 149.806 252.585 149.675 252.757C149.599 252.856 149.523 252.928 149.263 252.92L149.137 257.312C150.865 257.362 152.266 256.602 153.167 255.423C154.012 254.316 154.347 252.947 154.337 251.703C154.326 250.457 153.969 249.106 153.144 248.01C152.276 246.856 150.917 246.044 149.2 246.044L149.2 250.438ZM143.482 232.841C143.424 234.889 143.45 238.86 143.943 242.369C144.186 244.101 144.564 245.885 145.187 247.293C145.736 248.535 146.922 250.438 149.2 250.438L149.2 246.044C149.774 246.044 149.653 246.527 149.205 245.515C148.83 244.668 148.519 243.363 148.294 241.758C147.849 238.593 147.819 234.895 147.874 232.967L143.482 232.841ZM133.879 219.012C139.028 220.346 143.481 224.798 143.481 232.904L147.875 232.904C147.875 222.832 142.104 216.605 134.982 214.758L133.879 219.012ZM129.912 213.513C131.454 213.575 132.57 214.988 132.276 216.454L136.585 217.316C137.428 213.101 134.226 209.288 130.088 209.123L129.912 213.513ZM127.724 216.454C127.43 214.988 128.546 213.575 130.088 213.513L129.912 209.123C125.774 209.288 122.572 213.101 123.415 217.316L127.724 216.454ZM116.519 232.904C116.519 224.798 120.972 220.346 126.121 219.012L125.018 214.758C117.896 216.605 112.125 222.832 112.125 232.904L116.519 232.904ZM110.8 250.438C113.078 250.438 114.264 248.535 114.813 247.293C115.436 245.885 115.814 244.101 116.057 242.369C116.55 238.86 116.576 234.889 116.518 232.841L112.126 232.967C112.181 234.895 112.151 238.593 111.706 241.758C111.481 243.363 111.17 244.668 110.795 245.515C110.347 246.527 110.226 246.044 110.8 246.044V250.438Z" fill="white" mask="url(#path-6-outside-2)"/>
<defs>
<linearGradient id="paint0_linear" x1="250.5" y1="180" x2="250.5" y2="319.306" gradientUnits="userSpaceOnUse">
<stop stop-color="#69FF95" stop-opacity="0.72"/>
<stop offset="1" stop-color="#24DB68"/>
</linearGradient>
</defs>
</svg>
